{"title":"Coraline (2009).mkv","uid":5842417,"size":4692730922,"categoryP":"video","categoryS":"movies","magnet":"?xt=urn:btih:6e050740d3f61642862883048785be6661e981c2&amp;dn=Coraline+%282009%29.mkv&amp;tr=udp%3A%2F%2Ftracker.openbittorrent.com%3A80&amp;tr=udp%3A%2F%2Fopen.demonii.com%3A1337&amp;tr=udp%3A%2F%2Ftracker.coppersurfer.tk%3A6969&amp;tr=udp%3A%2F%2Fexodus.desync.com%3A6969","seeders":0,"leechers":0,"uploader":"eiten","files":1,"time":1285015674,"description":"Coraline ist ein Animationsfilm des US-amerikanischen Regisseurs Henry Selick aus dem Jahr 2009. Die im Stop-Motion-Verfahren hergestellte 3D-Produktion basiert auf dem gleichnamigen Roman von Neil Gaiman, der von Selick selbst fÃƒÂ¼r die Kinoleinwand adaptiert wurde, wobei die Handlung deutlich erweitert und verÃƒÂ¤ndert wurde.\n\n3D Anaglyph\n\nInput #0, matroska, from 'Coraline (2009).mkv':\n  Duration: 01:40:29.24, start: 0.000000, bitrate: N/A\n    Stream #0.0(ger): Video: h264, yuv420p, 1280x688, PAR 1:1 DAR 80:43, 24 tbr, 1k tbn, 47.95 tbc\n    Stream #0.1(ger): Audio: ac3, 48000 Hz, 5.1, s16\n","torrent":{"xt":"urn:btih:6e050740d3f61642862883048785be6661e981c2","amp;dn":"Coraline+%282009%29.mkv","amp;tr":["udp%3A%2F%2Ftracker.openbittorrent.com%3A80","udp%3A%2F%2Fopen.demonii.com%3A1337","udp%3A%2F%2Ftracker.coppersurfer.tk%3A6969","udp%3A%2F%2Fexodus.desync.com%3A6969"],"infoHash":"6e050740d3f61642862883048785be6661e981c2","infoHashBuffer":{"type":"Buffer","data":[110,5,7,64,211,246,22,66,134,40,131,4,135,133,190,102,97,233,129,194]},"announce":[],"urlList":[]}}